# xmcd
# 
# Track frame offsets:
#     150
#     37623
#     71838
#     106071
# 
# Disc length: 1873
# 
# Revision: 0
# Processed by: cddbd v1.5.2PL0 Copyright (c) Steve Scherf et al.
# Submitted via: fre:ac v1.0.17
# 
DISCID=27074f04
DTITLE=Mary Higgins Clark - Mein Auge ruht auf Dir
DYEAR=2012
DGENRE=Hörbuch
TTITLE0=01
TTITLE1=02
TTITLE2=03
TTITLE3=04
EXTD=
EXTT0=
EXTT1=
EXTT2=
EXTT3=
PLAYORDER=
